<?xml version="1.0" standalone="no"?>
<!DOCTYPE svg PUBLIC "-//W3C//DTD SVG 20010904//EN"
 "http://www.w3.org/TR/2001/REC-SVG-20010904/DTD/svg10.dtd">
<svg version="1.0" xmlns="http://www.w3.org/2000/svg"
 width="1979.000000pt" height="606.000000pt" viewBox="0 0 1979.000000 606.000000"
 preserveAspectRatio="xMidYMid meet">
<metadata>
Created by potrace 1.13, written by Peter Selinger 2001-2015
</metadata>
<g transform="translate(0.000000,606.000000) scale(0.100000,-0.100000)"
fill="#000000" stroke="none">
<path d="M4158 3615 c23 -20 42 -43 42 -50 0 -8 9 -17 20 -20 11 -3 20 -9 21
-13 0 -4 2 -20 5 -37 8 -58 -2 -75 -46 -75 -22 0 -40 -4 -40 -9 0 -4 -54 -14
-120 -21 -105 -11 -120 -15 -120 -31 0 -17 -9 -19 -80 -19 -73 0 -80 -2 -80
-20 0 -18 -7 -20 -80 -20 -66 0 -80 -3 -80 -16 0 -14 -1 -14 -16 0 -17 17 -10
40 9 30 7 -4 9 -3 5 1 -10 11 -58 16 -58 6 0 -4 14 -20 31 -37 20 -19 38 -28
55 -26 13 2 24 -1 24 -7 0 -6 -7 -8 -15 -5 -8 4 -15 2 -15 -3 0 -15 46 -54 54
-46 4 5 6 1 4 -7 -2 -10 5 -15 19 -15 11 0 25 -4 29 -8 5 -4 0 -5 -10 -1 -12
4 -17 3 -15 -3 5 -15 1021 -1043 1030 -1043 5 0 391 384 469 466 2 3 -168 176
-379 385 -318 314 -386 377 -400 369 -13 -6 -18 -5 -18 5 0 7 7 11 16 8 20 -7
-244 260 -279 283 -14 8 -6 -1 18 -21z"/>
<path d="M3377 3119 c-8 -19 -24 -55 -36 -81 -11 -26 -21 -50 -21 -53 0 -6
-51 -115 -125 -268 l-47 -99 38 -41 c22 -23 65 -68 97 -100 l58 -59 -4 -591
c-3 -504 -6 -599 -19 -642 -66 -210 -197 -346 -398 -416 -97 -34 -266 -32
-372 3 -152 50 -284 166 -351 307 -18 36 -33 68 -34 69 -1 2 -19 -16 -40 -39
-21 -24 -86 -96 -146 -161 l-107 -117 77 -51 c359 -237 815 -300 1223 -169
435 140 782 482 924 910 63 188 67 226 73 554 l5 301 -312 309 c-171 171 -316
309 -322 307 -5 -1 -7 2 -4 7 8 12 -18 33 -29 23 -5 -4 -5 -2 -2 4 8 14 -36
57 -48 47 -4 -5 -5 -3 -2 3 3 6 -9 26 -27 43 l-34 33 -15 -33z"/>
<path d="M11690 2927 c-111 -32 -197 -103 -246 -202 -25 -51 -29 -72 -29 -140
0 -71 4 -88 34 -149 34 -70 131 -178 232 -259 47 -37 74 -50 45 -21 -18 18
-21 34 -5 34 5 0 8 -4 4 -9 -12 -20 28 -26 154 -23 127 3 131 4 132 25 0 22 0
22 10 -1 5 -13 7 -28 4 -33 -4 -5 1 -6 10 -3 12 5 13 9 4 20 -14 17 7 19 31 4
13 -9 13 -11 0 -21 -13 -9 -13 -10 1 -6 9 3 22 0 29 -6 7 -7 5 0 -4 14 -9 14
-26 34 -38 45 -321 279 -373 330 -381 370 -12 64 38 114 115 114 63 0 111 -25
171 -89 l47 -50 94 82 c52 45 95 87 95 94 2 24 -143 144 -216 179 -62 30 -86
36 -160 40 -56 2 -105 -1 -133 -9z"/>
<path d="M12410 2730 l0 -190 -62 -1 c-35 -1 -66 -1 -70 0 -5 0 -8 -51 -8
-114 l0 -115 70 0 70 0 0 -73 c0 -63 2 -74 18 -74 9 0 20 5 24 11 5 8 8 7 8
-1 0 -10 25 -13 89 -13 62 0 91 4 94 13 4 9 8 8 16 -3 8 -11 11 5 11 63 l0 77
78 0 77 0 -3 -69 c-3 -66 -2 -70 17 -68 12 1 21 6 21 12 0 5 5 2 11 -7 8 -15
24 -18 89 -18 50 0 80 4 80 11 0 5 5 7 10 4 6 -3 10 0 11 7 1 7 4 2 8 -12 7
-22 9 -19 24 32 30 102 93 151 162 128 20 -7 39 -10 42 -7 2 3 22 52 43 109
l38 103 -26 12 c-43 19 -137 16 -181 -6 -38 -20 -111 -93 -111 -111 0 -6 -4
-10 -10 -10 -6 0 -10 27 -10 60 l0 60 -185 0 -185 0 0 190 0 190 -130 0 -130
0 0 -190z"/>
<path d="M15805 2908 c-3 -7 -6 -94 -7 -192 l-3 -179 -60 -1 -60 -1 0 -110 0
-110 68 -3 67 -3 0 -52 c0 -84 15 -97 110 -97 53 0 80 4 83 13 4 9 6 9 6 -1 1
-10 6 -10 21 -2 16 9 20 7 22 -7 1 -10 4 20 7 66 l6 84 78 -2 77 -2 0 116 0
117 -75 -4 c-45 -2 -75 1 -76 7 0 6 0 84 1 175 1 91 -2 173 -6 183 -5 15 -22
17 -130 17 -91 0 -126 -3 -129 -12z"/>
<path d="M5595 2897 c-3 -6 -4 -174 -3 -372 l3 -360 56 -3 c42 -2 61 1 73 13
9 9 16 13 16 8 0 -4 44 -7 97 -5 57 2 138 -3 193 -12 61 -10 98 -12 104 -6 7
7 -2 10 -24 11 l-35 1 34 10 c28 8 36 6 43 -6 12 -22 88 -22 88 -1 0 8 5 15
11 15 5 0 8 -4 4 -9 -3 -5 -1 -12 5 -16 5 -3 10 -2 10 4 0 6 8 8 18 5 38 -12
-41 43 -89 61 -28 11 -53 23 -55 27 -2 4 14 17 36 29 166 93 190 360 46 505
-70 70 -136 93 -291 105 -182 13 -335 12 -340 -4z m468 -160 c80 -36 112 -88
112 -176 -1 -71 -17 -115 -64 -164 -54 -60 -150 -86 -308 -87 l-73 0 0 231 0
232 139 -5 c120 -5 145 -8 194 -31z"/>
<path d="M6865 2536 c-59 -28 -93 -56 -135 -110 l-30 -39 0 75 0 75 -70 2 -70
2 0 -190 0 -191 45 0 c36 0 45 4 45 17 0 15 2 14 15 -3 14 -18 14 -18 15 5 0
20 2 21 15 11 12 -10 16 -10 19 1 45 129 76 177 141 215 42 24 102 33 142 20
19 -6 27 0 53 40 16 27 30 52 30 56 0 16 -69 38 -117 38 -30 0 -67 -9 -98 -24z"/>
<path d="M7460 2545 c-97 -28 -193 -88 -242 -150 -12 -17 -28 -36 -36 -44 -19
-20 -62 -108 -78 -160 -16 -54 -17 -62 -3 -38 7 12 23 17 59 17 29 0 50 -5 50
-11 0 -5 4 -8 10 -4 5 3 6 13 3 22 -4 10 -2 14 4 10 5 -3 19 14 31 39 71 145
249 233 415 204 130 -23 234 -97 295 -210 27 -52 31 -55 70 -58 33 -2 42 0 42
12 0 9 5 16 11 16 7 0 8 -12 4 -32 l-6 -33 15 27 c27 51 -21 155 -119 254
-111 113 -216 155 -385 153 -52 0 -115 -7 -140 -14z"/>
<path d="M8651 2545 c-81 -23 -149 -64 -216 -130 -61 -60 -137 -187 -128 -212
3 -7 0 -13 -6 -13 -6 0 -11 -6 -11 -13 0 -10 16 -14 54 -16 47 -1 55 1 61 20
4 11 9 19 11 16 3 -2 0 -16 -5 -31 -20 -50 -1 -25 31 42 99 210 335 285 555
177 84 -41 141 -100 172 -178 l21 -52 43 3 c23 3 47 9 54 14 8 6 13 3 16 -9 3
-10 3 -1 2 19 -10 128 -163 298 -320 353 -70 24 -261 30 -334 10z"/>
<path d="M10599 2545 c-81 -22 -142 -58 -211 -125 -65 -64 -146 -189 -131
-204 4 -4 3 -10 -3 -14 -6 -4 -14 -20 -18 -36 -6 -26 -6 -27 9 -12 19 19 29
20 57 5 18 -9 19 -8 13 10 -4 12 -2 21 4 21 6 0 11 -11 11 -25 l0 -26 23 23
c13 13 36 47 52 76 98 180 330 248 527 153 84 -40 143 -99 185 -185 19 -39 33
-61 30 -48 -6 26 9 30 16 5 4 -17 5 -17 6 0 1 19 41 24 41 5 1 -7 7 -2 15 12
13 22 14 23 15 5 0 -23 16 -52 24 -44 9 8 -14 79 -25 79 -6 0 -7 4 -4 10 12
20 -59 131 -122 190 -109 103 -211 141 -373 139 -52 0 -116 -7 -141 -14z"/>
<path d="M13785 2550 c-105 -21 -223 -99 -295 -194 -41 -54 -96 -173 -85 -184
3 -4 10 -1 14 7 7 10 9 10 14 -2 4 -12 26 -16 91 -19 82 -3 86 -2 80 17 -5 19
-4 19 9 3 8 -10 16 -18 19 -18 3 0 19 22 36 48 70 108 219 159 354 122 56 -16
130 -71 163 -123 l30 -47 93 0 c73 0 94 3 98 15 5 12 10 10 25 -8 10 -12 18
-19 19 -16 1 16 -43 127 -65 164 -63 109 -210 212 -334 235 -62 12 -208 11
-266 0z"/>
<path d="M14941 2544 c-126 -34 -252 -133 -316 -249 -35 -64 -56 -133 -36
-121 7 5 11 -2 12 -16 1 -18 3 -16 10 10 5 17 12 32 14 32 2 0 2 -15 0 -32 -3
-18 -3 -27 1 -20 4 8 34 12 98 12 l91 0 20 36 c28 52 99 110 157 130 76 25
201 16 259 -18 59 -35 81 -55 113 -105 26 -42 44 -57 32 -28 -3 9 0 15 10 15
10 0 13 -6 9 -19 -6 -20 -3 -20 137 -2 38 5 59 4 63 -3 3 -6 3 3 0 19 -12 64
-68 158 -134 224 -106 107 -223 151 -391 150 -52 0 -119 -7 -149 -15z"/>
<path d="M9424 2516 c-3 -13 -4 -38 -2 -57 l3 -34 263 -3 c151 -1 262 -6 262
-12 0 -5 -26 -51 -58 -102 -32 -51 -62 -99 -67 -107 -5 -10 -4 -12 3 -7 8 5
10 2 6 -8 -3 -9 -10 -14 -14 -11 -5 3 -11 1 -14 -4 -3 -5 1 -11 9 -15 8 -3 15
0 15 6 0 7 19 9 58 6 l58 -6 79 121 c104 157 155 240 155 250 0 4 -169 7 -375
7 l-375 0 -6 -24z"/>
<path d="M17315 2240 c-247 -50 -411 -276 -373 -514 21 -134 106 -216 247
-236 63 -9 173 1 229 21 l32 11 0 80 c0 79 0 80 -22 73 -13 -4 -55 -9 -94 -12
-112 -8 -159 26 -171 124 -12 105 48 217 141 265 43 22 128 29 178 15 26 -7
27 -5 53 74 15 44 25 82 24 83 -2 2 -28 9 -57 15 -60 12 -127 13 -187 1z"/>
<path d="M17903 2235 c-153 -43 -269 -162 -309 -316 -22 -86 -16 -219 13 -274
64 -122 194 -181 344 -156 232 38 377 225 367 470 -5 134 -57 215 -167 264
-59 26 -177 32 -248 12z m149 -169 c93 -58 35 -350 -80 -405 -37 -18 -97 -13
-125 9 -54 42 -61 158 -17 274 24 63 84 132 122 139 29 6 77 -2 100 -17z"/>
<path d="M18847 2233 c-29 -10 -69 -35 -100 -65 -28 -26 -53 -48 -54 -48 -2 0
0 25 3 55 l7 55 -91 0 -90 0 -6 -27 c-3 -16 -8 -48 -11 -73 -7 -49 -103 -571
-112 -607 -5 -23 -4 -23 100 -23 l104 0 23 123 c51 283 68 338 124 404 37 44
96 62 131 39 22 -15 25 -23 25 -80 0 -51 -39 -289 -76 -458 l-6 -28 104 0 104
0 38 198 c20 108 46 217 57 242 46 102 113 153 170 130 52 -22 53 -67 5 -325
-20 -104 -38 -202 -42 -217 l-6 -28 106 0 c58 0 106 1 106 3 0 1 18 97 40 212
65 337 64 411 -3 483 -77 80 -227 62 -333 -40 l-41 -39 -12 29 c-37 89 -147
124 -264 85z"/>
<path d="M5590 1730 l0 -240 213 0 c116 0 241 5 277 10 139 22 266 112 320
227 27 59 45 159 36 207 l-7 36 -72 0 -72 0 3 -53 c5 -76 -12 -127 -59 -181
-75 -84 -149 -106 -366 -106 l-133 0 0 170 0 170 -70 0 -70 0 0 -240z"/>
<path d="M6560 1730 l0 -240 70 0 70 0 0 240 0 240 -70 0 -70 0 0 -240z"/>
<path d="M7070 1958 c1 -33 32 -142 54 -187 84 -175 229 -282 408 -300 251
-25 427 57 552 258 30 48 31 46 -35 84 l-46 26 -38 -54 c-95 -139 -227 -203
-393 -193 -176 11 -318 139 -353 320 l-12 58 -68 0 c-49 0 -69 -4 -69 -12z"/>
<path d="M8270 1943 c1 -90 76 -247 159 -331 102 -103 207 -142 379 -143 168
-1 274 41 383 150 58 57 109 132 109 159 0 8 -83 52 -100 52 -5 0 -23 -20 -39
-44 -94 -137 -222 -202 -381 -194 -103 5 -176 35 -248 102 -69 65 -97 120
-126 249 -6 26 -9 27 -71 27 -64 0 -65 0 -65 -27z"/>
<path d="M9604 1863 c-37 -60 -105 -165 -151 -236 -46 -70 -83 -129 -83 -132
0 -3 180 -5 400 -5 l400 0 0 60 0 60 -284 2 -285 3 109 170 c60 94 110 173
110 178 0 4 -33 7 -73 7 l-74 0 -69 -107z"/>
<path d="M10210 1963 c1 -43 36 -157 65 -212 102 -193 255 -283 484 -283 152
1 254 36 357 126 52 45 141 173 128 185 -5 5 -30 20 -56 34 l-47 26 -36 -54
c-92 -137 -228 -204 -395 -192 -176 12 -316 138 -351 319 l-12 58 -68 0 c-38
0 -69 -3 -69 -7z"/>
<path d="M11922 1963 c58 -113 59 -149 5 -201 -94 -91 -236 -53 -326 87 l-32
49 -110 -65 c-60 -36 -109 -71 -109 -77 0 -22 80 -133 128 -179 96 -89 200
-123 353 -114 52 3 111 10 131 16 57 18 157 89 194 140 60 81 88 217 68 320
l-6 31 -150 0 c-82 0 -148 -3 -146 -7z"/>
<path d="M12408 1730 l-3 -240 133 0 132 0 0 240 0 240 -130 0 -129 0 -3 -240z"/>
<path d="M12820 1730 l0 -240 130 0 130 0 0 240 0 240 -130 0 -130 0 0 -240z"/>
<path d="M13380 1942 c0 -96 65 -234 152 -320 108 -108 222 -153 398 -153 179
-1 302 45 411 154 33 32 59 62 59 66 0 4 -50 30 -110 58 l-110 52 -29 -25
c-16 -13 -54 -36 -84 -49 -67 -31 -186 -36 -256 -10 -86 30 -155 107 -176 198
l-7 27 421 0 c368 0 421 2 421 15 0 13 -67 15 -545 15 l-545 0 0 -28z"/>
<path d="M14550 1958 c0 -7 7 -43 15 -81 39 -187 200 -351 390 -396 64 -16
226 -16 301 -1 93 19 181 66 251 134 35 34 63 67 63 72 0 6 -48 34 -106 61
l-107 51 -43 -33 c-66 -51 -130 -68 -233 -63 -95 5 -141 23 -199 78 -36 35
-55 68 -70 122 l-10 38 421 2 c275 2 421 6 420 13 -5 16 -1093 19 -1093 3z"/>
<path d="M15807 1964 c-4 -4 -7 -112 -7 -241 l0 -233 135 0 135 0 -2 238 -3
237 -126 3 c-69 1 -128 -1 -132 -4z"/>
<path d="M16620 1753 c-8 -3 -26 -15 -38 -27 -59 -52 -70 -143 -26 -195 81
-97 252 -19 238 109 -1 14 -3 31 -3 39 -1 7 -17 29 -37 47 -29 28 -43 34 -77
33 -23 0 -49 -3 -57 -6z"/>
<path d="M8056 1113 c-2 -10 -19 -92 -36 -183 -17 -91 -33 -175 -35 -187 -5
-21 -2 -23 34 -23 l39 0 36 188 c20 104 36 196 36 205 0 24 -67 24 -74 0z"/>
<path d="M8216 1113 c-2 -10 -19 -92 -36 -183 -17 -91 -33 -175 -35 -187 -5
-21 -2 -23 34 -23 l39 0 36 188 c20 104 36 196 36 205 0 24 -67 24 -74 0z"/>
<path d="M7489 1087 c-19 -12 -39 -39 -47 -59 -21 -54 -3 -90 67 -136 60 -40
69 -57 48 -86 -15 -21 -60 -26 -114 -12 -29 7 -34 5 -45 -19 -16 -36 -1 -48
71 -53 113 -8 176 34 176 118 0 55 -18 81 -77 111 -52 27 -64 53 -37 80 18 18
28 20 70 15 47 -6 50 -5 59 20 14 36 1 44 -76 44 -47 0 -69 -5 -95 -23z"/>
<path d="M8440 1103 c0 -5 16 -57 36 -116 35 -105 36 -111 25 -170 -7 -34 -14
-70 -17 -79 -5 -15 1 -18 35 -18 23 0 41 1 41 3 0 1 7 37 15 81 14 73 21 86
95 187 44 60 80 111 80 114 0 3 -19 5 -43 5 l-43 0 -49 -85 c-27 -46 -51 -83
-53 -80 -2 2 -8 23 -13 47 -27 119 -26 118 -69 118 -22 0 -40 -3 -40 -7z"/>
<path d="M9725 1088 c-13 -61 -65 -345 -65 -356 0 -9 12 -12 37 -10 l38 3 15
80 16 80 72 3 c86 3 83 14 47 -145 -5 -21 -2 -23 35 -23 33 0 40 4 45 23 12
58 65 346 65 356 0 8 -13 11 -37 9 l-38 -3 -14 -72 -13 -73 -74 0 c-41 0 -74
1 -74 3 0 1 6 35 14 75 l14 72 -39 0 c-32 0 -39 -4 -44 -22z"/>
<path d="M11499 1087 c-19 -12 -39 -39 -47 -59 -21 -54 -3 -90 67 -136 60 -40
69 -57 48 -86 -15 -21 -60 -26 -114 -12 -29 7 -34 5 -45 -19 -16 -36 -1 -48
71 -53 113 -8 176 34 176 118 0 55 -18 81 -77 111 -52 26 -64 53 -38 79 22 22
54 25 94 11 22 -9 26 -7 35 21 14 41 4 48 -75 48 -47 0 -69 -5 -95 -23z"/>
<path d="M13225 1098 c-7 -24 -65 -340 -65 -359 0 -15 7 -19 35 -19 38 0 34
-7 55 103 l11 57 70 0 c48 0 69 4 69 13 0 6 3 22 6 35 6 21 4 22 -60 22 -71 0
-71 0 -60 59 l7 31 73 0 c53 0 74 4 74 13 0 6 3 22 6 35 6 22 6 22 -105 22
-80 0 -113 -3 -116 -12z"/>
<path d="M14093 1069 c-26 -8 -33 -15 -33 -35 0 -17 -8 -27 -25 -34 -28 -11
-33 -37 -10 -54 13 -10 13 -20 0 -89 -19 -98 -19 -93 5 -117 13 -13 33 -20 59
-20 32 0 40 4 45 23 9 32 8 37 -9 37 -28 0 -35 33 -19 103 15 63 17 67 44 67
25 0 40 15 40 41 0 5 -14 9 -30 9 -30 0 -30 1 -24 40 7 43 6 43 -43 29z"/>
<path d="M7814 1000 c-48 -15 -101 -80 -109 -133 -17 -114 52 -167 184 -141
26 6 31 11 31 35 0 27 -2 29 -27 23 -53 -14 -85 -8 -106 17 l-19 24 73 12 c58
10 79 18 97 38 62 72 -22 156 -124 125z"/>
<path d="M8805 995 c-108 -38 -151 -184 -73 -250 54 -46 155 -28 209 38 10 12
23 41 28 65 19 72 -4 122 -66 148 -39 17 -47 17 -98 -1z m82 -75 c14 -31 3
-92 -23 -121 -23 -26 -70 -25 -84 2 -16 30 -2 98 26 126 30 30 65 27 81 -7z"/>
<path d="M9510 1003 c-8 -3 -27 -17 -42 -31 l-28 -26 0 27 c0 23 -4 27 -30 27
-25 0 -30 -4 -34 -32 -14 -88 -38 -215 -42 -230 -4 -15 1 -18 34 -18 l39 0 17
81 c18 86 47 129 84 129 22 0 32 18 32 56 0 24 -4 27 -30 17z"/>
<path d="M10165 995 c-108 -38 -151 -184 -73 -250 54 -46 155 -28 209 38 10
12 23 41 28 65 19 72 -4 122 -66 148 -39 17 -47 17 -98 -1z m82 -75 c14 -31 3
-92 -23 -121 -23 -26 -70 -25 -84 2 -16 30 -2 98 26 126 30 30 65 27 81 -7z"/>
<path d="M10554 1003 c-12 -2 -30 -13 -40 -24 -22 -25 -38 -24 -31 1 4 17 0
20 -28 20 l-33 0 -21 -117 c-12 -65 -24 -128 -27 -140 -4 -21 -1 -23 34 -23
l39 0 12 72 c20 120 62 181 99 144 16 -16 14 -47 -14 -184 l-7 -33 39 3 38 3
16 80 c18 90 31 120 61 136 17 9 25 8 36 -4 14 -13 14 -25 -1 -104 -21 -116
-22 -113 19 -113 39 0 35 -8 60 131 17 95 11 130 -25 149 -26 14 -71 5 -104
-21 -20 -16 -26 -17 -33 -6 -9 15 -47 38 -60 36 -4 -1 -18 -4 -29 -6z"/>
<path d="M10974 999 c-48 -14 -101 -79 -109 -132 -17 -114 52 -167 184 -141
26 6 31 11 31 35 0 27 -2 29 -27 23 -53 -14 -85 -8 -106 17 l-19 24 73 12 c58
10 79 18 97 38 61 71 -23 155 -124 124z"/>
<path d="M11845 995 c-37 -10 -60 -24 -86 -54 -57 -63 -67 -154 -23 -198 22
-22 32 -25 67 -20 28 4 49 14 64 32 l23 26 0 -30 c0 -29 3 -31 35 -31 33 0 35
2 35 35 0 19 9 80 20 136 11 57 19 104 17 104 -13 11 -112 11 -152 0z"/>
<path d="M12446 1000 c-58 -18 -115 -99 -116 -163 0 -41 27 -92 56 -106 28
-12 85 -14 133 -5 26 6 31 11 31 36 0 25 -3 28 -21 23 -45 -15 -93 -8 -112 16
l-19 24 73 12 c58 10 79 18 97 38 61 71 -23 156 -122 125z"/>
<path d="M12895 1003 c-11 -2 -30 -6 -42 -8 -61 -13 -123 -104 -123 -180 0
-90 84 -127 149 -66 l31 29 0 -29 c0 -26 3 -29 35 -29 33 0 35 2 35 35 0 19 9
80 20 136 11 57 19 104 17 104 -6 6 -105 12 -122 8z"/>
<path d="M13558 998 c-70 -19 -128 -115 -114 -190 9 -50 46 -80 103 -85 99 -9
177 65 177 168 0 55 -20 84 -71 105 -37 16 -43 16 -95 2z m79 -79 c29 -60 -37
-166 -86 -140 -28 15 -35 49 -21 99 18 70 82 94 107 41z"/>
<path d="M13940 1003 c-8 -3 -27 -17 -42 -31 l-28 -26 0 27 c0 23 -4 27 -30
27 -25 0 -30 -4 -34 -32 -14 -88 -38 -215 -42 -230 -4 -15 1 -18 34 -18 l39 0
17 81 c19 86 47 129 85 129 14 0 22 9 27 28 3 15 7 33 10 40 3 12 -10 14 -36
5z"/>
<path d="M14694 996 c-18 -8 -35 -19 -38 -25 -12 -18 -24 -12 -19 9 5 17 0 20
-30 20 l-35 0 -22 -117 c-12 -65 -24 -128 -27 -140 -5 -21 -2 -23 35 -23 l40
0 12 68 c17 90 33 127 65 148 24 16 28 16 42 1 15 -14 15 -23 -1 -99 -23 -119
-23 -120 21 -116 l38 3 17 90 c23 122 23 141 -7 170 -27 28 -46 30 -91 11z"/>
<path d="M14974 999 c-48 -14 -101 -79 -109 -132 -17 -114 52 -167 184 -141
26 6 31 11 31 35 0 27 -2 29 -27 23 -53 -14 -85 -8 -106 17 l-19 24 73 12 c58
10 79 18 97 38 61 71 -23 155 -124 124z"/>
<path d="M9040 948 c-6 -29 -14 -83 -17 -121 -5 -56 -3 -70 12 -87 25 -28 74
-25 120 6 l38 25 -5 -25 c-5 -24 -2 -26 28 -26 27 0 35 5 38 23 9 39 46 244
46 250 0 4 -17 7 -39 7 l-38 0 -13 -76 c-15 -89 -44 -139 -80 -139 -20 0 -26
6 -28 30 -3 26 10 120 24 168 4 14 -1 17 -34 17 l-40 0 -12 -52z"/>
<path d="M12045 978 c2 -13 12 -66 20 -118 24 -149 20 -140 64 -140 l39 0 73
132 c41 72 76 135 77 140 2 4 -16 8 -40 8 l-43 0 -45 -102 -45 -102 -7 40 c-4
21 -7 57 -8 79 -1 74 -8 85 -51 85 -36 0 -39 -2 -34 -22z"/>
<path d="M14230 948 c-6 -29 -14 -83 -17 -121 -5 -56 -3 -70 12 -87 25 -28 74
-25 120 6 l38 25 -5 -25 c-5 -24 -2 -26 28 -26 27 0 35 5 38 23 9 39 46 244
46 250 0 4 -17 7 -39 7 l-38 0 -13 -76 c-7 -42 -23 -90 -34 -107 -25 -36 -63
-47 -73 -21 -6 15 12 159 24 190 4 11 -5 14 -35 14 l-40 0 -12 -52z"/>
</g>
</svg>
