<?xml version="1.0" encoding="UTF-8" standalone="no"?>
<svg
   xmlns:dc="http://purl.org/dc/elements/1.1/"
   xmlns:cc="http://creativecommons.org/ns#"
   xmlns:rdf="http://www.w3.org/1999/02/22-rdf-syntax-ns#"
   xmlns:svg="http://www.w3.org/2000/svg"
   xmlns="http://www.w3.org/2000/svg"
   viewBox="0 0 720 720"
   height="720"
   width="720"
   xml:space="preserve"
   version="1.1"
   id="svg2"><metadata
     id="metadata8"><rdf:RDF><cc:Work
         rdf:about=""><dc:format>image/svg+xml</dc:format><dc:type
           rdf:resource="http://purl.org/dc/dcmitype/StillImage" /></cc:Work></rdf:RDF></metadata><defs
     id="defs6" /><g
     transform="matrix(1.25,0,0,-1.25,0,720)"
     id="g10"><g
       transform="scale(0.1,0.1)"
       id="g12"><path
         id="path14"
         style="fill:#ffffff;fill-opacity:1;fill-rule:evenodd;stroke:none"
         d="m 2886.69,1178.07 c 63.37,3.35 126.78,6.07 190.1,10.19 125,8.14 247.93,29.03 365.85,71.77 113.68,41.22 218.61,98.51 304.01,186.58 33.62,34.69 40.23,71.03 20.87,107.92 -32.24,61.45 -98.67,70.47 -154.69,24.75 -41.57,-33.91 -84.62,-67.43 -131.35,-93.29 -152.17,-84.18 -320.75,-104.73 -490.24,-109.45 -121.8,-3.4 -244.46,3.22 -365.92,14.22 -127.29,11.53 -250.75,43.89 -360.74,112.93 -39.35,24.7 -73.55,57.42 -111.67,84.27 -46.48,32.71 -94.68,26.4 -127.93,-14 -33.97,-41.27 -30.91,-95.24 9.6,-132.62 85.56,-79 182.52,-139.65 292.85,-178.2 181.11,-63.27 368.31,-84.9 559.26,-85.07 z m 752.57,1082.88 c 183.77,-12.02 374.7,165.86 371.64,369.83 -3.04,203.32 -168.35,371.4 -371.35,371.4 -204.11,-0.01 -366.81,-166.8 -371.69,-370.96 -4.76,-198.86 186.9,-382.69 371.4,-370.27 z m -1516.67,-0.01 c 205.86,-0.07 375.71,167.84 375.41,371.13 -0.29,200.82 -171.12,370.07 -373.57,370.11 -202.3,0.03 -377.39,-171.37 -373.46,-373.69 4.07,-209.65 177.24,-369.79 371.62,-367.55 z m 747.9,-1613.561 c -324.11,1.43 -638.38,54.461 -943.87,159.051 -261.03,89.359 -500.8,218.49 -712.79,396.34 -159.6,133.92 -293.029,290.38 -389.189,475.78 -73.45,141.6 -124.805,291.58 -133.25,452.25 -4.696,89.37 -1.235,179.28 1.828,268.83 0.769,22.45 -3.754,35.24 -21.856,47.38 -128.351,86.12 -216.379,203.58 -258.652,351.81 -63.648,223.18 -28.801,430.72 117.223,613.55 115.586,144.73 268.031,223.88 453.894,239.55 180.582,15.23 341.322,-30.42 482.782,-144.79 9.52,-7.7 32.9,-8.79 43.95,-2.54 300.56,169.91 623.53,271.3 964.64,317.19 60.44,8.14 121.52,12.16 182.45,15.88 32.99,2.02 51.37,13.62 60.47,48.17 67.15,255.18 136.28,509.84 204.65,764.7 29.22,108.89 58.24,217.84 87.09,326.83 25.36,95.83 83.59,132.3 180.05,107.23 181.08,-47.07 361.56,-96.47 542.31,-144.84 32.44,-8.68 66.13,-14.1 97.13,-26.38 29.8,-11.8 46.69,-1.26 63.9,20.83 56.2,72.14 128.89,120.37 216.15,147.56 274.13,85.45 565.62,-86.06 601.14,-379.47 32.18,-265.77 -144,-490.58 -408.31,-520.56 -252.74,-28.67 -481.03,148.06 -509.58,402.5 -1.4,12.47 -17.03,30.14 -29.32,33.56 -147.9,41.17 -296.52,79.71 -444.64,120.06 -25.14,6.84 -34.29,-2.15 -40.34,-24.95 -40.56,-153.05 -81.95,-305.85 -123.06,-458.75 -32.7,-121.62 -65.16,-243.3 -98.13,-364.84 -12.49,-46.05 -9.6,-48.86 36.38,-51.62 197.01,-11.85 390.3,-46.51 580,-100.35 164.32,-46.63 322.21,-110.15 474.21,-188.02 30.92,-15.84 61.42,-32.75 90.79,-51.28 21.76,-13.72 39.81,-12.4 58.59,4.23 118.76,105.1 261.19,152.45 416.16,154.29 354.09,4.24 637.3,-256.74 666.62,-596.6 14.33,-166.18 -24.34,-316.06 -118.41,-452.36 -46.12,-66.83 -103.74,-122.71 -172.99,-165.14 -31.47,-19.29 -39.95,-39.93 -36.87,-78.81 16.91,-213.81 -11.84,-420.98 -103.02,-617.49 C 4793.68,1412.3 4538.44,1174.44 4225.36,993.391 3929.58,822.332 3609.09,722.242 3271.28,679.059 3138.51,662.09 3004.14,657.57 2870.49,647.379" /></g></g></svg>